<svg xmlns="http://www.w3.org/2000/svg" viewBox="0 0 88.27 88.27">
  <defs>
    <style>
      .cls-1 {
        fill: #057c82;
      }

      .cls-2 {
        fill: #50b2cc;
      }
    </style>
  </defs>
  <g id="Layer_2" data-name="Layer 2">
    <g id="Layer_1-2" data-name="Layer 1">
      <path class="cls-1" d="M74.28,48.43,48.43,74.28l8.63,8.64a18.29,18.29,0,0,0,25.86,0h0a18.29,18.29,0,0,0,0-25.86Z" />
      <path class="cls-2" d="M70,44.14l3.23-3.24,9.7-9.69a18.29,18.29,0,0,0,0-25.86h0a18.31,18.31,0,0,0-25.86,0L44.14,18.28,31.21,5.35a18.31,18.31,0,0,0-25.86,0h0a18.31,18.31,0,0,0,0,25.86L18.28,44.14,5.35,57.06a18.31,18.31,0,0,0,0,25.86h0a18.29,18.29,0,0,0,25.86,0l9.69-9.7L44.14,70Z" />
   </g>
  </g>
</svg>