<?xml version="1.0" encoding="utf-8"?>
<!-- Generator: Adobe Illustrator 23.0.2, SVG Export Plug-In . SVG Version: 6.00 Build 0)  -->
<svg version="1.1" id="Layer_1" xmlns="http://www.w3.org/2000/svg" xmlns:xlink="http://www.w3.org/1999/xlink" x="0px" y="0px"
	 viewBox="0 0 819 695.7" style="enable-background:new 0 0 819 695.7;" xml:space="preserve">
<style type="text/css">
	.st0{fill:#F2F2F2;}
	.st1{fill:#FFFFFF;}
	.st2{fill:#3F3D56;}
	.st3{fill:#FFB8B8;}
	.st4{fill:#2F2E41;}
	.st5{fill:#4FB2CC;}
	.st6{fill:#007B81;}
</style>
<path class="st0" d="M67.8,672.3c41.3,26.5,92.9,25.1,142.5,18.9c6.9-0.9,13.8-1.8,20.6-2.8h0.1c0.3,0,0.7-0.1,1-0.1
	c1.4-0.2,2.8-0.4,4.2-0.6l-0.3,0.6l-0.9,2c0.3-0.7,0.7-1.3,1-2c0.1-0.2,0.2-0.4,0.3-0.6c11.7-23.1,23.2-47.1,25.1-72.9
	c1.9-26.8-9.2-56.4-33.3-68.2c-3.2-1.5-6.5-2.7-9.9-3.5c-1.4-0.3-2.9-0.6-4.3-0.8c-15.2-2.2-31.5,2.3-42.8,12.8
	c-15,13.9-20.2,37.3-12.6,56.2c-21-19.3-19-52.5-13.7-80.5c5.4-28,12-59.1-3.3-83.2c-8.5-13.4-22.6-21.2-38.1-23.8
	c-0.5-0.1-0.9-0.2-1.4-0.2c-18-2.7-37.7,1.6-52.6,12.2C21.1,455.7,8,491.5,5,526C0.1,581.6,20.8,642.2,67.8,672.3z"/>
<path class="st1" d="M75.8,583.2c1.8,12.1,5.4,23.9,10.6,34.9c4.8,9.8,11,18.8,18.4,26.8c15.2,16.4,34.8,28.3,55.8,35.8
	c16,5.6,32.7,9.1,49.6,10.5c6.9-0.9,13.8-1.8,20.6-2.8h0.1c0.3,0,0.7-0.1,1-0.1c1.4-0.2,2.8-0.4,4.2-0.6l-0.3,0.6l-0.9,2
	c0.3-0.7,0.7-1.3,1-2c0.1-0.2,0.2-0.4,0.3-0.6c-26.9-24.1-40.5-59.7-36.4-95.6c2.2-17.6,8.4-34.4,18.3-49.1
	c-1.4-0.3-2.9-0.6-4.3-0.8c-3.7,5.8-7,11.8-9.7,18.1c-9.6,22.5-11.7,47.6-6,71.4c5.3,21.6,16.6,41.2,32.7,56.5c-1.3,0-2.7-0.1-4-0.1
	c-25-0.8-50.1-4.8-73.2-14.5c-19.5-8.2-37.5-20.8-50.9-37.3c-14.7-18.1-21.9-40.4-24.2-63.4c-2.4-24.6-0.6-49.8,3.7-74.1
	c4.4-24.9,11.9-49.1,22.2-72.2c0.5-1.1,0-2.4-1-2.9c-0.4-0.3-0.9-0.3-1.4-0.2c-0.5,0.2-0.9,0.5-1,1c-1.3,2.9-2.5,5.7-3.7,8.6
	c-9.9,24-16.8,49.1-20.5,74.8C73.1,532.6,71.9,558.4,75.8,583.2z"/>
<path id="fe7ea4cb-bc3a-4b8d-a4ea-d66dad23bcdf-885" class="st2" d="M567.4,165.3h-3.8V60.6C563.6,27.1,536.5,0,503,0H281.2
	c-33.5,0-60.6,27.1-60.6,60.6v574.3c0,33.5,27.1,60.6,60.6,60.6H503c33.5,0,60.6-27.1,60.6-60.6V239.8h3.8L567.4,165.3z"/>
<path id="eacd08e9-88f4-437e-9f6d-ef6f76b30d28-886" class="st1" d="M505.5,15.8h-29c4.5,11-0.8,23.5-11.8,28
	c-2.6,1.1-5.3,1.6-8.1,1.6H329.5c-11.9,0-21.5-9.6-21.5-21.5c0-2.8,0.5-5.5,1.6-8.1h-27c-25,0-45.3,20.3-45.3,45.3l0,0v573.5
	c0,25,20.3,45.3,45.3,45.3h222.9c25,0,45.3-20.3,45.3-45.3l0,0V61C550.7,36,530.4,15.8,505.5,15.8L505.5,15.8z"/>
<path class="st0" d="M795.8,683.5c-16.1,11.6-36.9,12.2-57,10.7c-2.8-0.2-5.6-0.4-8.4-0.7c0,0,0,0-0.1,0s-0.3,0-0.4,0
	c-0.6-0.1-1.1-0.1-1.7-0.2l0.1,0.3l0.4,0.8c-0.2-0.3-0.3-0.5-0.5-0.8c0-0.1-0.1-0.2-0.1-0.2c-5.2-9.1-10.4-18.5-11.7-28.9
	c-1.4-10.8,2.5-22.9,11.9-28.2c1.2-0.7,2.6-1.2,3.9-1.6c0.6-0.2,1.1-0.3,1.7-0.4c11-2.5,22,4.5,24.4,15.6c0.8,3.7,0.6,7.5-0.6,11.1
	c8-8.2,6.5-21.6,3.8-32.7c-2.8-11.2-6.1-23.6-0.5-33.6c3.1-5.6,8.7-9,14.8-10.4c0.2,0,0.4-0.1,0.6-0.1c7.4-1.5,15-0.2,21.5,3.8
	c11.8,7.5,17.9,21.6,19.9,35.5C821.1,645.5,814.1,670.3,795.8,683.5z"/>
<path class="st1" d="M790.6,647.8c-0.5,4.9-1.6,9.7-3.5,14.3c-1.7,4-4,7.8-6.8,11.2c-5.9,6.9-13.3,12.3-21.7,15.7
	c-6.3,2.6-13,4.4-19.8,5.3c-2.8-0.2-5.6-0.4-8.4-0.7c0,0,0,0-0.1,0s-0.3,0-0.4,0c-0.6-0.1-1.1-0.1-1.7-0.2l0.1,0.3l0.4,0.8
	c-0.2-0.3-0.3-0.5-0.5-0.8c0-0.1-0.1-0.2-0.1-0.2c10.3-10.3,15-25,12.6-39.3c-1.3-7-4.1-13.7-8.5-19.4c0.6-0.2,1.1-0.3,1.7-0.4
	c1.6,2.2,3.1,4.6,4.3,7.1c4.4,8.9,5.8,18.9,4,28.7c-1.7,8.8-5.8,17-11.9,23.5c0.5,0,1.1-0.1,1.6-0.1c10.1-0.9,20.1-3,29.2-7.4
	c7.8-3.7,14.6-9.2,19.7-16.2c5.5-7.6,8-16.8,8.4-26.1c0.3-10-0.7-20.1-3.1-29.8c-2.3-9.9-5.9-19.5-10.5-28.6
	c-0.2-0.4-0.1-0.9,0.4-1.2c0.2-0.1,0.4-0.2,0.6-0.1c0.2,0.1,0.4,0.2,0.4,0.4c0.6,1.1,1.1,2.2,1.7,3.4c4.5,9.5,7.8,19.4,9.9,29.7
	C790.6,627.3,791.7,637.7,790.6,647.8z"/>
<path class="st2" d="M818,695.6H1c-0.6,0-1-0.4-1-1s0.4-1,1-1h817c0.6,0,1,0.4,1,1S818.6,695.6,818,695.6z"/>
<polygon class="st3" points="639.6,684.3 627.4,684.3 621.5,637 639.6,637 "/>
<path class="st4" d="M618.6,680.8h23.6l0,0v14.9l0,0h-38.5l0,0l0,0C603.7,687.5,610.4,680.8,618.6,680.8z"/>
<polygon class="st3" points="685.6,684.3 673.4,684.3 667.5,637 685.6,637 "/>
<path class="st4" d="M664.6,680.8h23.6l0,0v14.9l0,0h-38.5l0,0l0,0C649.7,687.5,656.4,680.8,664.6,680.8z"/>
<path class="st3" d="M684.1,543.5c-5-3.2-6.4-9.9-3.2-14.8c0.3-0.5,0.7-1,1.2-1.5L674,412.6l23.3,2.3l0.6,112.2
	c4.1,4.3,3.9,11.2-0.4,15.3C693.8,545.7,688.3,546.2,684.1,543.5L684.1,543.5z"/>
<path class="st4" d="M639,660.5l-13.5-0.6c-2.4-0.1-4.3-2.1-4.3-4.5l-0.9-136.6c0-2.5,2-4.5,4.5-4.5c0.2,0,0.5,0,0.7,0l54,7.8
	c2.2,0.3,3.8,2.2,3.9,4.4l6.9,126.5c0,2.5-2,4.5-4.5,4.5l0,0h-14.5c-2.2,0-4.1-1.6-4.4-3.8l-9-57.1c-0.3-1.9-2.1-3.2-4-2.9
	c-1.5,0.2-2.7,1.5-2.9,3l-7.1,59.6c-0.3,2.3-2.2,4-4.5,4C639.2,660.5,639.1,660.5,639,660.5z"/>
<path class="st5" d="M648.5,526.6c-11.9-6.6-21.2-8.3-25.7-8.8c-1.2-0.1-2.3-0.7-3.1-1.7s-1.1-2.2-0.9-3.4l12.9-96.1
	c1.5-11.4,8.8-21.2,19.4-26c10.2-4.7,22.1-3.7,31.4,2.5c0.4,0.3,0.9,0.6,1.3,0.9c10.8,7.9,15.8,21.6,12.6,34.6
	c-7.9,32.5-10.7,85.7-11.1,96c-0.1,1.8-1.2,3.4-2.9,4c-4.9,1.8-10,2.7-15.2,2.7C660.7,531.4,654.3,529.8,648.5,526.6z"/>
<path class="st5" d="M679.2,451.1c-1.1-0.8-1.8-2-1.9-3.4l-1.7-30.9c-0.4-6.8,4.9-12.7,11.7-13.1c5.8-0.3,11.1,3.5,12.6,9.1
	l7.5,27.6c0.6,2.4-0.8,4.9-3.2,5.5l-21.3,5.8C681.7,452.1,680.3,451.8,679.2,451.1z"/>
<circle class="st3" cx="659.4" cy="353.1" r="24.6"/>
<path class="st3" d="M613.2,449.8c-2.8,0-5.5-0.9-7.7-2.6l-41.8-33c-0.3,0.1-0.7,0.2-1,0.3c-3,0.7-6.3,0.1-8.8-1.7
	c-2.6-1.8-4.3-4.6-4.6-7.7c-0.7-6,3.6-11.5,9.6-12.2c5.6-0.7,10.7,3,12,8.4l0,0c0.1,0.5,0.2,1,0.2,1.5l42.5,24.5l10.6-6.1l11.7,15.3
	l-15.5,11C618.2,449,615.7,449.8,613.2,449.8z"/>
<path class="st5" d="M615.1,425.7c-0.1-1.4,0.3-2.7,1.3-3.7l21.9-21.9c4.8-4.8,12.7-4.8,17.5,0c4.1,4.1,4.8,10.6,1.6,15.5l-15.6,24
	c-1.4,2.1-4.1,2.7-6.2,1.3l-18.5-12C616,428.2,615.2,427,615.1,425.7z"/>
<path class="st4" d="M666.3,376.1c1.4,1.7,3.9,1.8,5.6,0.4c0,0,0.1,0,0.1-0.1c5.5-4.4,9.8-10.1,12.7-16.5c3.2-7.6,3.7-16.9,0-24
	c-3.1-6-8.6-9.9-14.1-13c-2.1-1.3-4.4-2.3-6.8-2.9c-2.5-0.6-5.1-0.1-7.2,1.4c-2.2,1.7-3.3,4.5-2.9,7.2c-2.5-3.3-5.9-5.9-9.8-7.4
	c-2.4-1-5.1-1.2-7.6-0.5c-3.5,1.2-6.2,4.8-7.6,8.6c-1.2,2.9-1.6,6.1-1.3,9.3c0.3,3,1.9,5.8,4.3,7.7c2.9,2,6.6,1.8,10,0.9
	s6.6-2.4,10-2.8s7.2,0.5,9.2,3.5c1.4,2.1,1.8,5,2.1,7.7l1.5,14c0.1,2,0.5,4,1.3,5.8C665.9,375.6,666.1,375.9,666.3,376.1z"/>
<g>
	<path class="st5" d="M456.8,314l7.8-7.9l23.6-23.5c17.3-17.4,17.3-45.5,0-62.8l0,0c-17.4-17.3-45.5-17.3-62.8,0L394,251.2
		l-31.4-31.4c-17.4-17.3-45.5-17.3-62.8,0l0,0c-17.3,17.4-17.3,45.5,0,62.8l31.4,31.4l-31.4,31.4c-17.3,17.4-17.3,45.5,0,62.8l0,0
		c17.4,17.3,45.5,17.3,62.8,0l23.5-23.6l7.9-7.8L456.8,314z"/>
	<path class="st6" d="M467.2,324.5l-62.8,62.8l21,21c17.4,17.3,45.5,17.3,62.8,0l0,0c17.3-17.4,17.3-45.5,0-62.8L467.2,324.5z"/>
</g>
<g>
	<path d="M297.2,551.1v11.8h-5.6v-11.8l-11.1-18.6h5c0.5,0,0.9,0.1,1.2,0.4c0.3,0.2,0.5,0.5,0.7,0.9l5.6,10.1
		c0.3,0.6,0.6,1.2,0.8,1.7c0.2,0.5,0.5,1.1,0.7,1.6c0.2-0.5,0.4-1.1,0.6-1.6s0.5-1.1,0.8-1.7l5.5-10.1c0.2-0.3,0.4-0.6,0.7-0.9
		s0.7-0.4,1.2-0.4h5L297.2,551.1z"/>
	<path d="M320.1,541c1.6,0,3.1,0.3,4.4,0.8c1.3,0.5,2.4,1.3,3.3,2.2c0.9,1,1.6,2.1,2.1,3.5c0.5,1.4,0.8,2.9,0.8,4.6
		c0,1.7-0.3,3.2-0.8,4.6c-0.5,1.4-1.2,2.5-2.1,3.5c-0.9,1-2,1.7-3.3,2.2c-1.3,0.5-2.8,0.8-4.4,0.8c-1.6,0-3.1-0.3-4.4-0.8
		c-1.3-0.5-2.4-1.3-3.4-2.2c-0.9-1-1.7-2.1-2.2-3.5c-0.5-1.4-0.8-2.9-0.8-4.6c0-1.7,0.3-3.2,0.8-4.6s1.2-2.5,2.2-3.5
		c0.9-1,2.1-1.7,3.4-2.2C317,541.3,318.5,541,320.1,541z M320.1,559.2c1.8,0,3.1-0.6,4-1.8c0.9-1.2,1.3-3,1.3-5.3
		c0-2.3-0.4-4.1-1.3-5.3c-0.9-1.2-2.2-1.8-4-1.8c-1.8,0-3.2,0.6-4,1.8c-0.9,1.2-1.3,3-1.3,5.3c0,2.3,0.4,4.1,1.3,5.3
		C316.9,558.6,318.2,559.2,320.1,559.2z"/>
	<path d="M339.5,541.3V555c0,1.3,0.3,2.3,0.9,3.1c0.6,0.7,1.5,1.1,2.7,1.1c0.9,0,1.7-0.2,2.5-0.6s1.5-0.9,2.2-1.6v-15.6h5.2v21.5
		h-3.2c-0.7,0-1.1-0.3-1.3-0.9l-0.4-1.7c-0.4,0.4-0.9,0.9-1.4,1.2c-0.5,0.4-1,0.7-1.5,0.9c-0.5,0.3-1.1,0.5-1.7,0.6
		c-0.6,0.1-1.3,0.2-2,0.2c-1.2,0-2.2-0.2-3.1-0.6s-1.7-1-2.3-1.7c-0.6-0.7-1.1-1.6-1.4-2.6c-0.3-1-0.5-2.1-0.5-3.3v-13.7H339.5z"/>
	<path d="M358.6,562.9v-21.5h3c0.5,0,0.9,0.1,1.1,0.3c0.2,0.2,0.3,0.5,0.4,1l0.3,2.6c0.8-1.3,1.7-2.4,2.7-3.1c1-0.8,2.2-1.2,3.5-1.2
		c1.1,0,1.9,0.2,2.6,0.7l-0.7,3.9c0,0.3-0.1,0.4-0.3,0.5c-0.1,0.1-0.3,0.2-0.6,0.2c-0.2,0-0.5,0-0.9-0.1c-0.4-0.1-0.8-0.1-1.4-0.1
		c-1.1,0-2,0.3-2.8,0.9c-0.8,0.6-1.4,1.5-2,2.6v13.4H358.6z"/>
	<path d="M403,547.7c0,2.2-0.4,4.3-1.1,6.1c-0.7,1.9-1.8,3.5-3.1,4.8c-1.3,1.3-3,2.4-4.9,3.1s-4,1.1-6.3,1.1h-11.6v-30.4h11.6
		c2.3,0,4.4,0.4,6.3,1.1s3.5,1.8,4.9,3.1c1.3,1.3,2.4,2.9,3.1,4.8C402.7,543.4,403,545.5,403,547.7z M397.3,547.7
		c0-1.7-0.2-3.2-0.7-4.5c-0.4-1.3-1.1-2.4-1.9-3.4s-1.8-1.6-3-2.1c-1.2-0.5-2.5-0.7-4-0.7h-5.9v21.4h5.9c1.5,0,2.8-0.2,4-0.7
		c1.2-0.5,2.2-1.2,3-2.1c0.8-0.9,1.5-2,1.9-3.4C397,550.9,397.3,549.4,397.3,547.7z"/>
	<path d="M416.4,541c1.6,0,3.1,0.3,4.4,0.8c1.3,0.5,2.4,1.3,3.3,2.2c0.9,1,1.6,2.1,2.1,3.5s0.8,2.9,0.8,4.6c0,1.7-0.3,3.2-0.8,4.6
		c-0.5,1.4-1.2,2.5-2.1,3.5c-0.9,1-2,1.7-3.3,2.2c-1.3,0.5-2.8,0.8-4.4,0.8c-1.6,0-3.1-0.3-4.4-0.8c-1.3-0.5-2.4-1.3-3.4-2.2
		c-0.9-1-1.7-2.1-2.2-3.5c-0.5-1.4-0.8-2.9-0.8-4.6c0-1.7,0.3-3.2,0.8-4.6s1.2-2.5,2.2-3.5c0.9-1,2.1-1.7,3.4-2.2
		C413.3,541.3,414.8,541,416.4,541z M416.4,559.2c1.8,0,3.1-0.6,4-1.8c0.9-1.2,1.3-3,1.3-5.3c0-2.3-0.4-4.1-1.3-5.3
		c-0.9-1.2-2.2-1.8-4-1.8c-1.8,0-3.2,0.6-4,1.8c-0.9,1.2-1.3,3-1.3,5.3c0,2.3,0.4,4.1,1.3,5.3C413.2,558.6,414.6,559.2,416.4,559.2z
		"/>
	<path d="M446.2,545.9c-0.2,0.2-0.3,0.3-0.5,0.5c-0.1,0.1-0.4,0.2-0.6,0.2c-0.3,0-0.5-0.1-0.8-0.2s-0.6-0.3-0.9-0.5
		s-0.8-0.4-1.2-0.5c-0.5-0.2-1.1-0.2-1.8-0.2c-0.9,0-1.7,0.2-2.4,0.5c-0.7,0.3-1.3,0.8-1.7,1.4c-0.5,0.6-0.8,1.4-1,2.2
		c-0.2,0.9-0.3,1.9-0.3,3c0,1.1,0.1,2.2,0.4,3.1s0.6,1.6,1.1,2.3c0.5,0.6,1,1.1,1.7,1.4c0.7,0.3,1.4,0.5,2.2,0.5s1.5-0.1,2-0.3
		c0.5-0.2,0.9-0.4,1.3-0.7s0.7-0.5,0.9-0.7c0.3-0.2,0.5-0.3,0.9-0.3c0.4,0,0.7,0.2,0.9,0.5l1.5,1.9c-0.6,0.7-1.2,1.2-1.9,1.7
		c-0.7,0.5-1.4,0.8-2.1,1.1c-0.7,0.3-1.5,0.5-2.2,0.6c-0.8,0.1-1.5,0.2-2.3,0.2c-1.3,0-2.6-0.2-3.8-0.7c-1.2-0.5-2.2-1.2-3.1-2.2
		c-0.9-1-1.6-2.1-2.1-3.5c-0.5-1.4-0.8-3-0.8-4.7c0-1.6,0.2-3,0.7-4.4c0.5-1.4,1.1-2.5,2-3.5s2-1.8,3.3-2.3c1.3-0.6,2.8-0.8,4.5-0.8
		c1.6,0,3,0.3,4.2,0.8c1.2,0.5,2.3,1.3,3.3,2.2L446.2,545.9z"/>
	<path d="M458.2,563.2c-1.9,0-3.3-0.5-4.3-1.6c-1-1.1-1.5-2.5-1.5-4.4v-12h-2.2c-0.3,0-0.5-0.1-0.7-0.3c-0.2-0.2-0.3-0.5-0.3-0.8
		v-2.1l3.5-0.6l1.1-5.9c0.1-0.3,0.2-0.5,0.4-0.7c0.2-0.2,0.5-0.2,0.8-0.2h2.7v6.8h5.7v3.7h-5.7v11.7c0,0.7,0.2,1.2,0.5,1.6
		s0.8,0.6,1.3,0.6c0.3,0,0.6,0,0.8-0.1c0.2-0.1,0.4-0.2,0.6-0.2s0.3-0.2,0.4-0.2c0.1-0.1,0.3-0.1,0.4-0.1c0.2,0,0.3,0,0.4,0.1
		c0.1,0.1,0.2,0.2,0.3,0.3l1.6,2.5c-0.8,0.6-1.6,1.1-2.6,1.4C460.2,563.1,459.2,563.2,458.2,563.2z"/>
	<path d="M476.5,541c1.6,0,3.1,0.3,4.4,0.8c1.3,0.5,2.4,1.3,3.3,2.2c0.9,1,1.6,2.1,2.1,3.5c0.5,1.4,0.8,2.9,0.8,4.6
		c0,1.7-0.3,3.2-0.8,4.6c-0.5,1.4-1.2,2.5-2.1,3.5c-0.9,1-2,1.7-3.3,2.2c-1.3,0.5-2.8,0.8-4.4,0.8c-1.6,0-3.1-0.3-4.4-0.8
		c-1.3-0.5-2.4-1.3-3.4-2.2c-0.9-1-1.7-2.1-2.2-3.5c-0.5-1.4-0.8-2.9-0.8-4.6c0-1.7,0.3-3.2,0.8-4.6c0.5-1.4,1.2-2.5,2.2-3.5
		c0.9-1,2.1-1.7,3.4-2.2C473.5,541.3,474.9,541,476.5,541z M476.5,559.2c1.8,0,3.1-0.6,4-1.8c0.9-1.2,1.3-3,1.3-5.3
		c0-2.3-0.4-4.1-1.3-5.3c-0.9-1.2-2.2-1.8-4-1.8c-1.8,0-3.2,0.6-4,1.8c-0.9,1.2-1.3,3-1.3,5.3c0,2.3,0.4,4.1,1.3,5.3
		C473.4,558.6,474.7,559.2,476.5,559.2z"/>
	<path d="M491.2,562.9v-21.5h3c0.5,0,0.9,0.1,1.1,0.3c0.2,0.2,0.3,0.5,0.4,1l0.3,2.6c0.8-1.3,1.7-2.4,2.7-3.1c1-0.8,2.2-1.2,3.5-1.2
		c1.1,0,1.9,0.2,2.6,0.7l-0.7,3.9c0,0.3-0.1,0.4-0.3,0.5c-0.1,0.1-0.3,0.2-0.6,0.2c-0.2,0-0.5,0-0.9-0.1c-0.4-0.1-0.8-0.1-1.4-0.1
		c-1.1,0-2,0.3-2.8,0.9c-0.8,0.6-1.4,1.5-2,2.6v13.4H491.2z"/>
</g>
</svg>
