<svg xmlns="http://www.w3.org/2000/svg" viewBox="0 0 303.4 88.27">
  <defs>
    <style>
      .cls-1 {
        fill: #057c82;
      }

      .cls-2 {
        fill: #50b2cc;
      }
    </style>
  </defs>
  <title> YourDoctor_Logo_SVG </title>
  <g id="Layer_2" data-name="Layer 2">
    <g id="Layer_1-2" data-name="Layer 1">
      <path class="cls-1" d="M74.28,48.43,48.43,74.28l8.63,8.64a18.29,18.29,0,0,0,25.86,0h0a18.29,18.29,0,0,0,0-25.86Z" />
      <path class="cls-2" d="M70,44.14l3.23-3.24,9.7-9.69a18.29,18.29,0,0,0,0-25.86h0a18.31,18.31,0,0,0-25.86,0L44.14,18.28,31.21,5.35a18.31,18.31,0,0,0-25.86,0h0a18.31,18.31,0,0,0,0,25.86L18.28,44.14,5.35,57.06a18.31,18.31,0,0,0,0,25.86h0a18.29,18.29,0,0,0,25.86,0l9.69-9.7L44.14,70Z" />
      <path class="cls-2" d="M131.7,4.91h7.38L129,21.11A14.39,14.39,0,0,1,125.65,25V39.15h-6.92v-14a13.85,13.85,0,0,1-3.46-4L105.21,4.91h7.39l9.55,14.86Z" />
      <path class="cls-2" d="M154,39.61a13.13,13.13,0,0,1-13.24-13V17.46A13.14,13.14,0,0,1,154,4.45h4.62a13.14,13.14,0,0,1,13.24,13V26.6a13.13,13.13,0,0,1-13.24,13Zm4.62-6c3.5,0,6.32-3.18,6.32-7.06V17.46c0-3.87-2.82-7.06-6.32-7.06H154c-3.5,0-6.32,3.19-6.32,7.06V26.6c0,3.88,2.82,7.06,6.32,7.06Z" />
      <path class="cls-2" d="M184.12,4.91V26.14c0,3.88,2.81,7.06,6.32,7.06h3.69c3.51,0,6.32-3.18,6.32-7.06V4.91h6.93V26.14a13.14,13.14,0,0,1-13.25,13h-3.69a13.13,13.13,0,0,1-13.24-13V4.91Z" />
      <path class="cls-1" d="M114.63,49.12H124a13.13,13.13,0,0,1,13.24,13v8.22a13.14,13.14,0,0,1-13.24,13H108.12V55.16A6.3,6.3,0,0,1,114.63,49.12Zm15.64,13c0-3.87-2.82-7.06-6.32-7.06H115V77.41H124c3.5,0,6.32-3.19,6.32-7.06Z" />
      <path class="cls-1" d="M154.45,83.82a13.13,13.13,0,0,1-13.24-13V61.67a13.13,13.13,0,0,1,13.24-13h4.61a13.14,13.14,0,0,1,13.25,13v9.14a13.14,13.14,0,0,1-13.25,13Zm4.61-5.95c3.51,0,6.32-3.19,6.32-7.06V61.67c0-3.87-2.81-7.06-6.32-7.06h-4.61c-3.51,0-6.32,3.19-6.32,7.06v9.14c0,3.87,2.81,7.06,6.32,7.06Z" />
      <path class="cls-1" d="M183.24,70.35c0,3.87,2.82,7.06,6.32,7.06h4.62a6.91,6.91,0,0,0,5.17-2.4l6,4.61c-2.4,2.31-7.57,3.74-11.17,3.74h-4.62a13.14,13.14,0,0,1-13.24-13V62.13a13.13,13.13,0,0,1,13.24-13h4.62c3.6,0,8.77,1.43,11.17,3.74l-6,4.61a6.91,6.91,0,0,0-5.17-2.4h-4.62c-3.5,0-6.32,3.19-6.32,7.06Z" />
      <path class="cls-1" d="M250.2,83.82a13.13,13.13,0,0,1-13.24-13V61.67a13.13,13.13,0,0,1,13.24-13h4.61a13.14,13.14,0,0,1,13.25,13v9.14a13.14,13.14,0,0,1-13.25,13Zm4.61-5.95c3.51,0,6.32-3.19,6.32-7.06V61.67c0-3.87-2.81-7.06-6.32-7.06H250.2c-3.51,0-6.32,3.19-6.32,7.06v9.14c0,3.87,2.81,7.06,6.32,7.06Z" />
      <path class="cls-1" d="M226.27,49.12h-17.6v6h9.23V83.36h6.92V55.07h9.83v-6Z" />
      <path class="cls-1" d="M294.13,73c5-1.48,8.49-5.4,8.49-10.94V60.75c0-7.2-5.95-11.63-13.24-11.63h-9.33a6.29,6.29,0,0,0-6.5,6v28.2h6.92V73.67h5.77l8.53,9.69h8.63Zm-9.51-5.26h-4.15V55.07h8.91c3.5,0,6.32,1.8,6.32,5.68V62c0,3.88-2.82,5.68-6.32,5.68Z" />
      <path class="cls-2" d="M234.09,28.77c5-1.48,8.49-5.4,8.49-10.94V16.54c0-7.2-6-11.63-13.24-11.63H220A6.3,6.3,0,0,0,213.51,11V39.15h6.93V29.46h5.76l8.54,9.69h8.63Zm-9.5-5.26h-4.15V10.87h8.9c3.51,0,6.32,1.8,6.32,5.67v1.29c0,3.88-2.81,5.68-6.32,5.68Z" />
    </g>
  </g>
</svg>