<svg
        xmlns="http://www.w3.org/2000/svg"
        width="100"
        height="100"
        viewBox="-4 -4 96 96"
      >
        <g id="loader-group" data-name="Layer 1">
          <path
            class="big-part"
            d="M70,44.14l3.23-3.24,9.7-9.69a18.29,18.29,0,0,0,0-25.86h0a18.31,18.31,0,0,0-25.86,0L44.14,18.28,31.21,5.35a18.31,18.31,0,0,0-25.86,0h0a18.31,18.31,0,0,0,0,25.86L18.28,44.14,5.35,57.06a18.31,18.31,0,0,0,0,25.86h0a18.29,18.29,0,0,0,25.86,0l9.69-9.7L44.14,70Z"
          />
          <clipPath id="big-part-mask">
            <path
              class="big-part"
              d="M70,44.14l3.23-3.24,9.7-9.69a18.29,18.29,0,0,0,0-25.86h0a18.31,18.31,0,0,0-25.86,0L44.14,18.28,31.21,5.35a18.31,18.31,0,0,0-25.86,0h0a18.31,18.31,0,0,0,0,25.86L18.28,44.14,5.35,57.06a18.31,18.31,0,0,0,0,25.86h0a18.29,18.29,0,0,0,25.86,0l9.69-9.7L44.14,70Z"
            />
          </clipPath>
          <path
            class="small-part"
            d="M74.28,48.43,48.43,74.28l8.63,8.64a18.29,18.29,0,0,0,25.86,0h0a18.29,18.29,0,0,0,0-25.86Z"
          />
          <clipPath id="small-part-mask">
            <path
              class="small-part"
              d="M74.28,48.43,48.43,74.28l8.63,8.64a18.29,18.29,0,0,0,25.86,0h0a18.29,18.29,0,0,0,0-25.86Z"
            />
          </clipPath>
        </g>
</svg>